# xmcd
#
# Track frame offsets:
#   150
#   16381
#   30014
#   46631
#   62255
#   75169
#   88066
#   104764
#   118999
#   135626
#   150498
#   164909
#   176601
#
# Disc length: 2552 seconds
#
# Revision: 0
# Processed by: cddbd v1.5.2PL0 Copyright (c) Steve Scherf et al.
# Submitted via: uFREEDB ActiveX Control 1.5
#
DISCID=9709f60d
DTITLE=Varios - Batidão Sertanejo
DYEAR=2010
DGENRE=sertanejo
TTITLE0=Luan Santana - Adrenalina
TTITLE1=Fernando e Sorocaba - To passando mau
TTITLE2=Michel Teló - Larga de bobeira 
TTITLE3=Joao neto e Frederico - Chora
TTITLE4=Jão marcio e Fabiano - casa das prima
TTITLE5=Jeann e Julio - Gordinho
TTITLE6=Henrique e Diego - Zoar e beber
TTITLE7=Adair Cardoso - 100% Paixão
TTITLE8=João Carreiro e Capataz - è para cabá
TTITLE9=Adson e Alana- Usou e abuusou
TTITLE10=Patricia e Adriana - Agora é do meu jeito
TTITLE11=Marcos e Belutti - Bora se acabar
TTITLE12=Lucas e Luan - Pondera
EXTD=
EXTT0=
EXTT1=
EXTT2=
EXTT3=
EXTT4=
EXTT5=
EXTT6=
EXTT7=
EXTT8=
EXTT9=
EXTT10=
EXTT11=
EXTT12=
PLAYORDER=
